<?xml version="1.0" standalone="no"?>
<!DOCTYPE svg PUBLIC "-//W3C//DTD SVG 20010904//EN"
 "http://www.w3.org/TR/2001/REC-SVG-20010904/DTD/svg10.dtd">
<svg version="1.0" xmlns="http://www.w3.org/2000/svg"
 width="180.000000pt" height="108.000000pt" viewBox="0 0 180.000000 108.000000"
 preserveAspectRatio="xMidYMid meet">
<metadata>
Created by potrace 1.10, written by Peter Selinger 2001-2011
</metadata>
<g transform="translate(0.000000,108.000000) scale(0.100000,-0.100000)"
fill="#eeac0d" stroke="none">
<path d="M975 1069 c-22 -3 -34 -7 -27 -8 19 -2 14 -24 -11 -51 -29 -31 -41
-59 -38 -88 3 -23 2 -23 -27 -8 -27 14 -31 14 -36 0 -4 -11 -1 -14 13 -9 19 6
33 -7 38 -34 1 -10 -1 -11 -10 -2 -14 14 -61 15 -52 0 4 -6 13 -8 20 -5 8 3
19 -2 27 -11 12 -15 9 -16 -22 -10 -31 6 -33 5 -17 -7 44 -34 74 -6 76 70 1
21 18 50 57 98 31 37 54 68 52 70 -1 1 -21 -1 -43 -5z"/>
<path d="M905 1040 c-10 -11 -13 -20 -7 -20 7 0 12 5 12 11 0 6 9 8 23 4 12
-3 18 -3 12 2 -5 5 -13 12 -16 16 -3 4 -14 -2 -24 -13z"/>
<path d="M847 1013 c-10 -10 -29 -56 -43 -103 l-26 -85 -51 -24 c-58 -28 -117
-42 -117 -29 0 4 -8 8 -17 8 -15 0 -14 -2 3 -15 13 -10 14 -14 5 -15 -24 0 8
-28 37 -32 l27 -4 -29 -8 c-24 -7 -32 -5 -45 13 -9 12 -20 19 -24 15 -15 -15
-6 -53 18 -82 13 -16 22 -32 18 -36 -3 -3 1 -6 9 -6 17 0 31 -57 17 -66 -11
-6 1 -87 13 -95 7 -4 6 -9 0 -13 -12 -7 -10 -17 11 -86 l14 -44 14 39 c15 46
15 49 5 93 -4 17 -14 32 -22 32 -8 0 -14 7 -14 16 0 14 3 14 15 4 9 -7 18 -10
22 -6 3 3 0 6 -7 6 -7 0 -10 3 -6 7 3 4 -4 13 -16 21 -22 13 -22 13 7 7 16 -4
27 -3 23 1 -4 3 -3 16 3 26 8 15 8 23 -1 32 -9 8 -11 7 -10 -4 4 -30 0 -40
-17 -40 -15 0 -16 2 -3 10 8 5 10 10 4 10 -6 0 -11 7 -11 15 0 8 4 12 9 9 4
-3 8 -1 8 4 0 9 -23 34 -55 58 -20 16 -13 15 30 -2 10 -4 15 0 15 10 0 10 -6
13 -15 10 -8 -4 -15 -1 -15 6 0 6 -4 9 -9 5 -5 -3 -12 -1 -15 4 -3 5 9 11 27
14 25 4 36 0 49 -17 16 -19 18 -19 18 -3 0 34 -20 57 -50 57 -16 0 -31 4 -34
9 -9 14 54 25 67 12 17 -17 29 -13 23 7 -3 13 8 23 47 43 29 14 51 31 50 37
-5 22 39 148 60 170 24 26 10 30 -16 5z"/>
<path d="M875 989 c-11 -16 -1 -19 13 -3 7 8 8 14 3 14 -5 0 -13 -5 -16 -11z"/>
<path d="M432 940 c-16 -26 -16 -27 16 -33 21 -4 34 -19 58 -69 20 -39 29 -70
24 -79 -4 -8 -10 -31 -14 -52 l-7 -37 -57 6 c-31 3 -97 17 -147 31 -121 34
-179 39 -211 19 -13 -9 -22 -22 -18 -28 5 -7 10 -5 15 5 14 24 69 29 134 11
131 -35 218 -54 245 -54 21 0 28 -4 24 -14 -3 -9 -12 -12 -22 -8 -15 5 -15 4
-3 -11 19 -24 7 -21 -44 9 -25 14 -52 23 -62 20 -10 -3 -34 2 -53 12 -84 44
-201 55 -208 20 -2 -11 17 -39 47 -70 60 -64 120 -85 254 -92 78 -4 88 -2 86
12 -1 9 1 25 6 35 4 10 5 20 2 24 -4 3 1 19 9 35 9 17 17 43 19 59 7 49 35 97
63 108 l27 9 -25 1 c-15 1 -32 -5 -39 -11 -11 -11 -13 -10 -9 2 3 8 14 20 27
26 19 10 20 13 6 24 -12 10 -15 10 -15 -3 0 -8 -7 -17 -15 -21 -10 -3 -15 1
-15 13 0 11 6 22 13 24 7 3 5 6 -5 6 -10 1 -18 6 -18 12 0 5 -4 7 -10 4 -5 -3
-10 -1 -10 5 0 6 10 15 23 21 l22 10 -22 -5 c-13 -2 -23 0 -23 5 0 6 -7 9 -16
7 -10 -2 -19 3 -21 10 -3 7 1 10 11 6 9 -3 16 -1 16 5 0 19 -45 12 -58 -9z
m-207 -256 c11 -5 13 -9 5 -14 -14 -9 -60 -1 -60 11 0 10 31 12 55 3z m-80
-14 c-7 -12 35 -30 50 -22 6 4 18 8 29 9 16 3 17 1 6 -12 -7 -8 -8 -15 -2 -15
12 0 34 25 27 32 -3 2 9 2 27 0 28 -4 30 -6 14 -18 -10 -7 -15 -17 -11 -23 3
-7 -3 -11 -15 -11 -13 0 -19 4 -14 12 5 7 3 8 -7 2 -18 -11 -62 -5 -71 10 -4
6 -8 7 -8 3 0 -4 -9 -3 -20 3 -21 11 -28 40 -9 40 5 0 7 -5 4 -10z m179 -34
c-4 -11 0 -13 18 -9 23 5 23 5 3 -11 -20 -17 -19 -17 4 -6 18 9 25 9 31 0 4
-6 10 -11 14 -11 3 1 5 -2 4 -6 -2 -5 -13 -7 -25 -5 -34 4 -28 -6 14 -23 20
-8 34 -17 32 -20 -8 -7 -82 18 -97 32 -22 21 -34 15 -21 -9 12 -23 12 -23 -8
-3 -17 17 -18 21 -5 31 8 6 12 16 8 22 -3 6 2 15 11 21 23 13 23 13 17 -3z
m73 2 c31 -13 83 -57 83 -70 0 -17 -22 -7 -51 22 -17 16 -40 37 -52 45 -26 18
-18 19 20 3z m-147 -48 c0 -5 -5 -10 -11 -10 -5 0 -7 5 -4 10 3 6 8 10 11 10
2 0 4 -4 4 -10z"/>
<path d="M552 918 c22 -24 50 -63 61 -87 12 -25 28 -47 35 -49 25 -8 -39 101
-82 140 -55 50 -62 48 -14 -4z"/>
<path d="M1307 930 c-21 -4 -43 -12 -50 -19 -9 -9 -4 -9 22 0 25 9 39 9 52 1
13 -9 18 -8 23 3 7 20 -3 23 -47 15z"/>
<path d="M1224 873 c-80 -44 -89 -51 -82 -59 4 -3 21 -1 38 6 27 11 33 10 50
-5 11 -10 23 -15 28 -10 4 4 2 10 -4 12 -6 2 -20 10 -30 17 -17 13 -16 15 16
29 45 18 58 11 28 -15 l-23 -21 27 5 c31 6 28 -6 -11 -37 -38 -30 -73 -37 -91
-19 -14 15 -13 15 6 6 16 -8 26 -8 38 1 15 11 13 13 -21 15 -51 3 -75 11 -67
23 3 6 -3 5 -14 -2 -11 -7 -31 -30 -44 -52 -13 -21 -34 -50 -47 -63 -25 -27
-24 -38 3 -28 9 3 26 28 37 54 12 27 29 56 40 66 23 21 25 7 2 -18 -19 -21
-14 -31 11 -22 9 3 13 11 10 16 -9 14 37 -1 56 -18 12 -12 6 -14 -43 -14 -31
0 -57 -3 -57 -7 0 -10 102 -9 118 1 22 13 12 -5 -18 -36 -17 -17 -29 -33 -26
-36 8 -7 159 136 174 165 37 69 -18 93 -104 46z m96 -13 c0 -5 -4 -10 -10 -10
-5 0 -10 5 -10 10 0 6 5 10 10 10 6 0 10 -4 10 -10z"/>
<path d="M900 811 c0 -17 27 -30 70 -36 25 -3 38 -2 30 1 -74 33 -100 42 -100
35z"/>
<path d="M790 799 c-11 -8 -9 -9 10 -3 22 6 23 5 11 -10 -7 -9 -19 -16 -26
-16 -13 0 -55 -76 -55 -99 0 -11 3 -11 16 0 9 7 26 13 38 14 14 0 26 12 38 38
10 20 23 37 28 37 17 0 11 27 -7 34 -10 3 -22 8 -28 11 -5 3 -17 0 -25 -6z
m25 -52 c-8 -13 -13 -26 -9 -29 3 -3 0 -9 -7 -14 -8 -5 -10 -3 -5 7 4 8 0 5
-8 -5 -12 -15 -16 -16 -16 -5 0 12 -2 12 -10 -1 -8 -13 -10 -13 -10 1 0 9 17
28 37 42 46 33 47 33 28 4z"/>
<path d="M1044 784 c-18 -14 -18 -15 4 -4 12 6 22 13 22 15 0 8 -5 6 -26 -11z"/>
<path d="M713 733 c-16 -33 0 -37 18 -4 11 19 12 28 5 28 -7 0 -17 -11 -23
-24z"/>
<path d="M945 750 c-4 -6 -11 -8 -16 -5 -17 11 -9 -4 21 -36 16 -18 27 -36 24
-40 -3 -5 5 -18 16 -29 26 -26 22 -42 -11 -51 -24 -7 -24 -7 -1 -8 31 -1 39
-28 19 -63 -9 -16 -12 -26 -7 -23 6 3 10 1 10 -4 0 -17 -20 -13 -26 4 -4 10
-13 13 -27 9 -16 -5 -19 -3 -14 10 4 9 2 16 -4 16 -6 0 -9 6 -6 13 2 7 18 11
38 10 30 -2 31 -2 12 7 -29 12 -29 25 -1 44 l22 16 -21 0 c-12 0 -24 6 -27 13
-4 8 -5 7 -5 -3 3 -38 -1 -51 -13 -44 -7 4 -10 4 -6 -1 4 -4 4 -13 -1 -19 -13
-17 -21 -102 -11 -112 14 -14 20 -124 8 -147 -5 -11 -11 -47 -13 -80 -2 -54
-5 -63 -34 -89 -17 -15 -38 -28 -47 -28 -12 0 -8 -9 15 -35 17 -19 28 -41 25
-49 -7 -17 8 -27 24 -17 8 5 3 17 -18 42 -31 36 -40 60 -15 39 12 -10 15 -9
15 5 0 17 1 17 18 1 11 -9 25 -34 32 -56 8 -24 20 -40 29 -40 10 0 12 3 5 10
-13 13 0 68 46 190 33 89 48 116 36 65 -5 -19 -4 -26 2 -20 16 16 25 55 13 55
-7 0 -7 7 0 23 8 17 8 35 0 62 -6 21 -8 42 -5 47 3 4 1 8 -5 8 -13 0 -4 85 11
118 15 30 21 28 41 -13 11 -24 34 -45 74 -67 32 -18 64 -33 73 -35 8 -1 16 -6
18 -12 2 -5 10 -7 18 -4 8 3 14 1 14 -3 0 -5 14 -10 32 -10 18 -1 34 -6 35
-11 2 -5 20 -7 40 -5 30 4 35 2 30 -12 -6 -14 -4 -15 16 -1 29 18 68 10 60
-13 -6 -15 -4 -15 14 1 21 18 48 24 38 7 -3 -5 -2 -10 4 -10 5 0 12 4 16 9 9
16 46 9 40 -8 -5 -12 -3 -12 11 0 17 14 111 21 119 9 5 -8 55 10 55 20 0 3
-17 4 -38 2 -21 -2 -116 1 -213 7 -155 9 -184 13 -257 40 -160 59 -184 74
-195 119 -5 20 -2 23 14 19 22 -6 32 5 23 27 -5 12 -10 14 -19 6 -8 -6 -19
-10 -27 -9 -25 3 -39 -1 -34 -10 3 -4 -4 -17 -16 -27 -21 -19 -21 -19 -15 11
4 22 -3 44 -25 83 -17 30 -37 56 -44 59 -12 4 -11 8 3 19 10 7 13 14 6 14 -6
0 -15 -5 -18 -10z m85 -261 c0 -5 -4 -9 -10 -9 -5 0 -10 7 -10 16 0 8 5 12 10
9 6 -3 10 -10 10 -16z m-58 -24 c14 -19 8 -24 -14 -12 -41 22 -48 28 -43 37 6
10 44 -7 57 -25z m47 -26 c30 -67 7 -186 -43 -228 -10 -9 -13 -22 -9 -42 3
-18 0 -38 -11 -54 -9 -14 -15 -29 -12 -33 3 -4 1 -13 -3 -20 -5 -9 -12 -4 -22
15 -8 16 -18 31 -24 36 -6 4 -3 13 8 21 14 11 15 15 5 19 -14 6 16 11 41 8 7
-2 10 3 6 9 -4 6 -16 8 -28 4 -20 -6 -20 -5 -5 10 12 12 15 26 11 53 -4 26 -3
34 6 29 6 -4 14 0 17 9 6 14 8 14 20 -2 7 -10 14 -13 14 -6 0 6 -7 19 -16 27
-8 9 -12 21 -8 27 5 8 3 9 -6 4 -9 -5 -10 -2 -6 13 4 11 2 23 -3 27 -6 3 -10
16 -9 28 0 12 -3 30 -7 40 -5 12 -3 17 9 17 14 0 19 -13 18 -45 0 -5 12 -20
28 -33 l29 -22 -1 30 c-1 30 -18 44 -18 14 0 -13 -3 -14 -14 -5 -11 9 -12 19
-3 46 6 19 13 35 16 35 3 0 12 -14 20 -31z"/>
<path d="M996 324 c7 -37 16 -47 12 -12 -2 15 -7 30 -11 34 -3 3 -4 -6 -1 -22z"/>
<path d="M950 233 c0 -22 2 -25 10 -13 13 20 13 40 0 40 -5 0 -10 -12 -10 -27z"/>
<path d="M847 743 c-4 -3 -7 -14 -7 -23 0 -10 -7 -23 -15 -30 -8 -7 -13 -16
-10 -20 3 -5 -6 -22 -20 -38 -23 -28 -33 -88 -12 -75 16 10 26 -20 15 -41 -11
-20 -10 -20 9 -3 38 33 42 17 5 -19 -20 -20 -30 -32 -21 -25 23 16 54 4 38
-15 -7 -8 -8 -18 -4 -22 4 -4 10 -1 12 6 6 17 20 15 20 -3 0 -8 -7 -15 -14
-15 -10 0 -12 -7 -8 -22 l6 -23 -17 23 c-9 12 -21 22 -26 22 -11 0 22 -62 40
-73 6 -4 12 -15 12 -22 0 -8 5 -15 10 -15 6 0 10 7 10 15 0 8 -4 15 -9 15 -5
0 -11 7 -14 14 -4 10 -1 13 8 10 10 -4 12 0 8 15 -4 15 -1 21 11 21 12 0 14 5
6 25 -5 14 -7 25 -4 25 4 0 1 6 -5 13 -6 8 -7 17 -3 22 4 4 -6 5 -23 1 -30 -7
-30 -7 -7 9 37 27 27 52 -18 45 -12 -2 -12 2 2 17 16 17 16 22 3 39 -14 18
-14 18 -16 -11 -1 -29 -1 -29 -8 -5 -8 26 5 54 20 44 5 -3 6 1 3 9 -3 8 2 17
11 21 9 3 13 11 10 17 -4 5 -1 24 5 40 12 29 10 46 -3 32z m-60 -165 c-3 -8
-6 -5 -6 6 -1 11 2 17 5 13 3 -3 4 -12 1 -19z"/>
<path d="M987 734 c-3 -5 1 -14 7 -20 10 -9 16 -7 24 7 8 12 8 19 2 19 -5 0
-10 -6 -10 -12 0 -10 -3 -9 -9 1 -5 7 -11 9 -14 5z"/>
<path d="M1125 713 c-35 -3 -43 -9 -63 -45 -12 -23 -20 -43 -18 -45 11 -11 93
38 109 66 10 17 17 30 15 29 -2 -1 -21 -3 -43 -5z"/>
<path d="M945 670 c-3 -5 -1 -10 4 -10 6 0 11 5 11 10 0 6 -2 10 -4 10 -3 0
-8 -4 -11 -10z"/>
<path d="M766 639 c-25 -30 -36 -66 -16 -54 6 3 10 11 10 18 0 6 12 24 27 39
15 15 22 28 16 28 -6 0 -23 -14 -37 -31z"/>
<path d="M714 636 c-3 -8 -4 -25 -2 -38 2 -19 5 -17 15 15 10 35 -1 55 -13 23z"/>
<path d="M1140 631 c0 -5 5 -13 10 -16 6 -3 10 -2 10 4 0 5 -4 13 -10 16 -5 3
-10 2 -10 -4z"/>
<path d="M1145 580 c-8 -13 4 -50 16 -50 6 0 7 -4 4 -10 -3 -5 1 -10 9 -10 19
0 19 4 4 47 -12 34 -22 41 -33 23z"/>
<path d="M523 565 c3 -26 -35 -57 -60 -49 -10 4 -2 -5 18 -19 44 -32 48 -37
146 -227 68 -130 80 -161 76 -191 -5 -34 -3 -36 43 -56 37 -16 53 -19 76 -11
15 6 28 13 28 16 -2 20 -59 71 -86 76 -30 7 -51 23 -68 54 -4 6 9 3 28 -9 26
-15 44 -19 66 -14 31 7 100 69 100 89 0 6 -6 4 -13 -4 -29 -35 -56 -50 -100
-55 -42 -5 -46 -4 -41 12 5 14 4 15 -4 4 -9 -12 -14 -12 -34 1 -18 12 -34 45
-61 130 -20 62 -37 124 -37 136 0 13 -11 35 -24 49 -23 24 -28 26 -53 15 l-28
-12 23 19 c18 16 20 23 12 43 -8 19 -9 19 -7 3z m27 -64 c0 -5 -10 -11 -22
-14 -22 -6 -22 -6 -4 8 23 17 26 18 26 6z m14 -36 c-4 -8 -1 -15 7 -15 7 0 9
-3 6 -6 -9 -9 -38 16 -31 27 9 15 24 10 18 -6z m163 -387 c-3 -8 -6 -5 -6 6
-1 11 2 17 5 13 3 -3 4 -12 1 -19z m86 -25 c16 -10 6 -33 -16 -33 -20 0 -57
30 -57 46 0 6 59 -5 73 -13z"/>
<path d="M585 530 c3 -5 8 -10 11 -10 2 0 4 5 4 10 0 6 -5 10 -11 10 -5 0 -7
-4 -4 -10z"/>
<path d="M750 510 c-8 -5 -12 -12 -9 -15 4 -3 12 1 19 10 14 17 11 19 -10 5z"/>
<path d="M1080 499 c0 -5 -4 -7 -10 -4 -5 3 -10 1 -10 -5 0 -7 6 -10 14 -7 7
3 23 -1 35 -9 29 -21 27 -12 -4 14 -14 12 -25 17 -25 11z"/>
<path d="M751 471 c-8 -5 -11 -16 -6 -30 5 -17 3 -20 -12 -14 -14 5 -16 3 -6
-7 6 -7 9 -19 5 -28 -4 -12 0 -11 20 4 22 16 24 21 13 34 -10 11 -11 20 -4 33
11 19 10 20 -10 8z"/>
<path d="M1062 450 c7 -11 16 -20 20 -20 5 0 8 -5 8 -11 0 -5 -5 -7 -12 -3 -7
4 -8 3 -4 -5 4 -6 10 -9 14 -7 4 2 8 -8 9 -23 1 -14 9 -40 17 -56 18 -34 21
-59 6 -50 -6 4 -6 -3 1 -18 8 -18 8 -30 0 -45 -12 -22 -15 -100 -4 -88 4 3 8
21 8 40 1 18 5 38 9 45 4 7 5 24 1 38 -6 24 -5 25 12 12 34 -27 40 -34 36 -49
-4 -13 -3 -13 6 0 7 10 6 19 -5 31 -8 8 -11 19 -7 24 5 4 2 5 -4 1 -9 -5 -21
12 -39 50 -27 59 -37 114 -21 114 4 0 5 5 2 10 -4 6 -10 8 -15 5 -4 -3 -13 2
-20 10 -18 22 -32 18 -18 -5z"/>
<path d="M1131 436 c13 -13 81 -56 89 -56 5 0 12 -5 16 -12 5 -7 3 -8 -7 -3
-8 5 0 -5 18 -23 29 -30 51 -43 39 -23 -3 4 5 7 18 6 13 -2 29 1 37 6 9 6 0 9
-27 9 -27 0 -46 6 -55 17 -8 10 -9 14 -2 10 6 -4 15 -2 19 5 4 7 4 10 0 6 -5
-4 -25 3 -45 15 -50 32 -117 59 -100 43z"/>
<path d="M1160 390 c0 -5 -7 -7 -15 -4 -25 10 -17 -12 9 -26 13 -7 39 -35 57
-64 18 -28 44 -59 56 -69 27 -22 30 -36 6 -32 -10 1 -17 8 -15 14 1 6 -3 10
-10 9 -6 -2 -20 14 -30 34 -9 20 -22 39 -28 43 -15 9 31 -76 53 -100 11 -11
26 -35 34 -54 14 -32 36 -61 46 -61 13 0 67 -56 68 -70 0 -10 2 -11 6 -2 2 6
9 10 14 6 12 -7 11 0 -2 30 -7 14 -19 28 -27 31 -12 5 -12 1 3 -15 10 -11 16
-23 13 -25 -3 -3 -18 9 -33 27 -15 18 -31 33 -35 33 -11 0 -35 28 -48 58 -16
36 -16 37 8 32 29 -6 25 4 -28 70 -27 33 -51 68 -55 78 -4 11 -16 21 -27 24
-11 3 -20 9 -20 14 0 5 8 5 18 2 15 -6 15 -5 3 10 -15 19 -21 21 -21 7z"/>
<path d="M1440 355 c-13 -14 -20 -25 -16 -25 11 0 50 39 44 45 -2 3 -15 -6
-28 -20z"/>
<path d="M1298 363 c7 -3 16 -2 19 1 4 3 -2 6 -13 5 -11 0 -14 -3 -6 -6z"/>
<path d="M729 343 c-13 -16 -12 -17 4 -4 16 13 21 21 13 21 -2 0 -10 -8 -17
-17z"/>
<path d="M1130 351 c0 -6 4 -13 10 -16 6 -3 7 1 4 9 -7 18 -14 21 -14 7z"/>
<path d="M1540 340 c-78 -43 -96 -48 -135 -43 -22 3 -52 5 -67 6 -15 0 -25 4
-22 8 3 5 -3 6 -12 2 -11 -4 -13 -8 -6 -11 7 -2 12 -10 12 -18 0 -7 14 -21 31
-30 17 -8 28 -11 25 -5 -9 14 0 14 26 0 11 -6 34 -12 52 -13 17 -2 41 -6 54
-10 12 -4 22 -3 22 2 0 5 -6 9 -12 10 -45 5 -120 22 -139 32 -14 8 -19 8 -15
1 11 -18 -10 -13 -25 6 -12 14 -12 16 0 8 10 -5 12 -4 7 3 -9 15 -6 15 35 -2
45 -18 159 -31 159 -18 0 6 -11 9 -24 8 -45 -5 -47 10 -5 24 24 8 53 25 65 37
28 28 21 28 -26 3z"/>
<path d="M1637 340 c-9 -14 -17 -19 -17 -12 0 16 -22 15 -43 0 -15 -11 -12
-13 22 -15 40 -2 67 15 59 39 -3 7 -11 2 -21 -12z"/>
<path d="M1686 349 c3 -5 11 -9 19 -9 8 0 16 4 19 9 3 5 -5 9 -19 9 -14 0 -22
-4 -19 -9z"/>
<path d="M1719 329 c-11 -11 -18 -23 -16 -26 7 -6 57 27 57 38 0 15 -19 10
-41 -12z"/>
<path d="M1171 324 c0 -11 3 -14 6 -6 3 7 2 16 -1 19 -3 4 -6 -2 -5 -13z"/>
<path d="M1775 320 c-32 -36 -69 -49 -101 -36 -20 9 -39 9 -68 1 -82 -21 -87
-40 -14 -49 41 -6 53 -4 60 8 5 8 15 13 23 9 19 -7 125 56 125 74 0 18 -4 16
-25 -7z m-116 -56 c-7 -9 -30 -14 -58 -13 -50 1 -47 4 12 14 21 3 35 10 32 15
-3 6 1 7 10 4 12 -5 13 -9 4 -20z"/>
<path d="M800 319 l-25 -7 27 -1 c19 -1 26 -5 22 -15 -3 -8 -12 -12 -19 -10
-7 3 -22 -4 -33 -16 -19 -21 -21 -21 -46 -5 -14 9 -33 15 -43 13 -14 -2 -8
-10 24 -33 23 -17 46 -38 50 -47 7 -16 9 -15 20 8 10 22 10 25 -3 20 -7 -3
-14 -2 -14 3 0 5 13 11 28 14 32 6 59 47 46 69 -6 10 -17 12 -34 7z"/>
<path d="M1096 317 c3 -10 9 -15 12 -12 3 3 0 11 -7 18 -10 9 -11 8 -5 -6z"/>
<path d="M1253 305 c17 -15 25 -30 21 -38 -4 -6 -4 -9 1 -5 4 4 22 -3 39 -16
17 -13 50 -30 74 -37 24 -7 38 -15 32 -19 -7 -5 -4 -9 9 -13 23 -6 34 3 23 19
-10 13 -59 34 -82 34 -11 0 -45 23 -75 50 -30 28 -59 50 -63 50 -4 0 6 -12 21
-25z"/>
<path d="M1380 320 c-8 -5 -10 -10 -5 -10 6 0 17 5 25 10 8 5 11 10 5 10 -5 0
-17 -5 -25 -10z"/>
<path d="M692 307 c-8 -10 -6 -13 7 -13 11 0 17 6 14 13 -3 7 -6 13 -8 13 -1
0 -7 -6 -13 -13z"/>
<path d="M737 300 c3 -11 9 -20 15 -20 5 0 4 9 -2 20 -6 11 -12 20 -14 20 -2
0 -2 -9 1 -20z"/>
<path d="M1068 287 c-2 -20 -1 -34 3 -31 4 2 15 -6 23 -18 12 -17 16 -19 16
-6 0 9 -7 19 -16 22 -10 4 -14 14 -11 25 2 10 1 24 -3 31 -5 7 -9 -2 -12 -23z"/>
<path d="M1675 310 c-3 -5 -1 -10 4 -10 6 0 11 5 11 10 0 6 -2 10 -4 10 -3 0
-8 -4 -11 -10z"/>
<path d="M1746 265 c-26 -14 -54 -25 -62 -25 -7 0 -14 -3 -14 -8 0 -16 -46
-28 -78 -19 -18 4 -41 6 -50 4 -9 -3 -4 -5 13 -6 20 -1 26 -4 19 -11 -8 -8
-26 -7 -59 0 -54 12 -68 8 -33 -11 30 -17 112 -23 103 -9 -5 8 5 9 32 4 21 -4
35 -3 31 1 -7 8 14 22 102 67 56 28 54 27 48 33 -3 3 -26 -6 -52 -20z"/>
<path d="M1030 215 c-7 -9 -10 -18 -7 -21 3 -3 10 4 17 15 13 25 8 27 -10 6z"/>
<path d="M1764 216 c-3 -8 -13 -17 -21 -20 -13 -5 -14 -4 -3 9 22 26 -5 16
-40 -15 -18 -16 -40 -30 -48 -30 -9 0 -13 -3 -9 -6 3 -4 23 0 44 9 26 10 44
12 56 6 20 -12 57 9 57 31 -1 12 -3 12 -14 -2 -21 -29 -39 -22 -20 7 9 14 13
25 10 25 -4 0 -9 -6 -12 -14z"/>
<path d="M1056 194 c-3 -8 -2 -12 4 -9 6 3 10 -1 10 -9 0 -30 -22 -72 -58
-111 -20 -21 -30 -34 -21 -27 23 17 32 2 12 -20 -21 -24 -4 -23 25 1 25 22 29
33 7 25 -22 -9 -18 10 6 32 12 10 25 28 30 39 7 16 9 13 6 -12 -4 -38 3 -42
21 -12 8 12 9 18 3 14 -12 -7 -15 10 -12 68 2 27 -1 37 -12 37 -8 0 -18 -7
-21 -16z"/>
<path d="M1150 205 c0 -3 8 -24 19 -45 10 -22 16 -40 12 -42 -4 -2 -4 -18 1
-36 5 -18 13 -30 18 -27 7 4 6 13 0 25 -18 34 -10 45 12 16 15 -19 22 -42 20
-65 -1 -28 0 -32 7 -16 8 18 9 19 16 3 4 -10 11 -18 15 -18 5 0 2 12 -6 28 -7
15 -14 32 -14 38 0 7 -6 14 -13 17 -8 3 -27 32 -43 66 -25 52 -44 76 -44 56z"/>
<path d="M1213 194 c18 -22 23 -39 8 -30 -5 4 -7 -3 -4 -14 3 -11 12 -19 21
-18 8 2 16 -3 18 -10 1 -7 0 -8 -3 -2 -2 5 -9 8 -14 5 -5 -4 -3 -12 4 -19 6
-8 15 -12 19 -10 3 2 9 -14 13 -36 4 -22 10 -38 15 -35 4 3 11 -2 14 -11 4 -9
9 -14 13 -11 3 4 1 13 -5 20 -7 7 -13 22 -15 33 -4 28 -61 127 -83 144 -18 14
-18 14 -1 -6z"/>
<path d="M1338 182 c11 -15 32 -34 46 -42 14 -7 26 -17 26 -22 0 -4 7 -8 16
-8 14 0 14 3 4 15 -7 8 -19 15 -26 15 -8 0 -14 5 -14 10 0 14 13 12 36 -5 25
-19 40 -19 24 0 -7 8 -18 15 -25 15 -7 0 -18 7 -25 15 -7 8 -17 15 -22 15 -6
0 -5 -7 2 -15 7 -8 9 -15 4 -15 -15 0 -30 14 -37 33 -3 9 -11 17 -17 17 -6 0
-2 -13 8 -28z"/>
<path d="M1141 165 c0 -11 6 -42 15 -70 l14 -50 -6 49 c-3 27 -9 58 -14 70 -8
20 -9 20 -9 1z"/>
<path d="M1012 157 c-6 -7 -13 -24 -16 -37 -2 -14 -7 -34 -11 -45 -7 -20 -7
-20 7 0 16 22 40 86 34 92 -2 2 -8 -2 -14 -10z"/>
<path d="M1310 162 c0 -6 5 -14 10 -17 6 -4 8 -9 6 -13 -2 -4 8 -16 23 -26 26
-20 26 -20 9 0 -10 12 -18 25 -18 31 0 6 -7 16 -15 23 -9 8 -15 9 -15 2z"/>
<path d="M1477 139 c18 -18 36 -30 39 -26 4 4 -1 14 -12 22 -18 13 -17 14 11
9 16 -3 36 -11 44 -17 11 -9 13 -9 8 0 -4 6 -1 14 5 16 7 3 2 6 -12 7 -36 3
-61 8 -90 16 -24 6 -24 5 7 -27z"/>
<path d="M1608 163 c7 -3 16 -2 19 1 4 3 -2 6 -13 5 -11 0 -14 -3 -6 -6z"/>
<path d="M1785 160 c-3 -5 -15 -10 -26 -10 -33 0 -21 -15 14 -17 17 0 26 1 19
4 -10 4 -10 8 -1 19 6 8 9 14 6 14 -3 0 -9 -4 -12 -10z"/>
<path d="M1355 130 c3 -5 8 -10 11 -10 2 0 4 5 4 10 0 6 -5 10 -11 10 -5 0 -7
-4 -4 -10z"/>
<path d="M1655 120 c-19 -21 -17 -24 9 -14 9 3 13 10 10 15 -3 5 -1 9 5 9 24
0 14 -27 -22 -57 -48 -41 -61 -41 -97 -3 -18 20 -27 25 -26 14 1 -9 10 -21 19
-26 10 -5 15 -13 13 -17 -3 -4 13 -8 35 -9 26 -2 39 1 39 10 0 9 3 9 12 0 7
-7 22 -12 35 -12 24 0 32 -15 11 -22 -7 -3 1 -5 19 -5 l31 0 -23 19 c-13 10
-30 18 -38 18 -21 0 -26 22 -9 39 13 13 18 11 45 -20 32 -35 77 -64 77 -50 0
5 -12 17 -26 27 -46 34 -74 63 -66 68 4 2 14 1 22 -5 21 -13 32 -11 24 4 -4 6
3 2 16 -11 27 -28 41 -21 15 8 -10 12 -25 18 -33 15 -7 -2 -26 2 -42 10 -36
19 -33 19 -55 -5z"/>
<path d="M1605 120 c-3 -5 -2 -10 4 -10 5 0 13 5 16 10 3 6 2 10 -4 10 -5 0
-13 -4 -16 -10z"/>
<path d="M1127 100 c-3 -11 -1 -20 4 -20 5 0 9 9 9 20 0 11 -2 20 -4 20 -2 0
-6 -9 -9 -20z"/>
<path d="M1460 112 c0 -4 14 -15 30 -24 17 -9 30 -14 30 -10 0 4 -14 15 -30
24 -17 9 -30 14 -30 10z"/>
<path d="M1380 106 c0 -2 14 -19 31 -37 l32 -34 -16 31 c-13 26 -47 54 -47 40z"/>
<path d="M1440 82 c6 -13 14 -21 18 -18 3 4 -2 14 -12 24 -18 16 -18 16 -6 -6z"/>
<path d="M1584 68 c9 -5 23 -5 32 0 12 6 7 9 -16 9 -23 0 -28 -3 -16 -9z"/>
<path d="M1101 54 c0 -11 3 -14 6 -6 3 7 2 16 -1 19 -3 4 -6 -2 -5 -13z"/>
<path d="M1130 58 c0 -7 -3 -23 -6 -35 -4 -14 -2 -23 5 -23 7 0 10 4 6 9 -3 5
-1 12 5 16 13 8 13 45 0 45 -5 0 -10 -6 -10 -12z"/>
<path d="M1322 38 c29 -37 45 -45 45 -22 0 8 -11 20 -24 25 -12 5 -23 13 -23
19 0 5 -5 10 -11 10 -6 0 0 -14 13 -32z"/>
<path d="M1686 62 c-3 -5 1 -9 9 -9 8 0 12 4 9 9 -7 10 -11 10 -18 0z"/>
<path d="M1510 56 c0 -2 7 -9 15 -16 13 -11 14 -10 9 4 -5 14 -24 23 -24 12z"/>
<path d="M1080 42 c0 -4 -12 -15 -26 -23 l-27 -16 30 1 c25 1 30 5 30 24 0 12
-1 22 -3 22 -2 0 -4 -3 -4 -8z"/>
<path d="M1488 25 c17 -14 34 -25 38 -25 11 0 -48 49 -59 50 -5 0 5 -11 21
-25z"/>
<path d="M1175 30 c3 -5 8 -10 11 -10 2 0 4 5 4 10 0 6 -5 10 -11 10 -5 0 -7
-4 -4 -10z"/>
<path d="M1446 15 c25 -19 40 -19 24 0 -7 8 -20 15 -28 15 -13 0 -12 -3 4 -15z"/>
<path d="M1640 19 c0 -5 -6 -7 -12 -3 -7 4 -10 3 -5 -1 4 -5 16 -9 27 -10 15
-1 17 1 9 12 -14 16 -19 17 -19 2z"/>
<path d="M1540 16 c0 -2 9 -6 20 -9 11 -3 18 -1 14 4 -5 9 -34 13 -34 5z"/>
</g>
</svg>
