<?xml version="1.0" standalone="no"?>
<!DOCTYPE svg PUBLIC "-//W3C//DTD SVG 20010904//EN"
 "http://www.w3.org/TR/2001/REC-SVG-20010904/DTD/svg10.dtd">
<svg version="1.0" xmlns="http://www.w3.org/2000/svg"
 width="180.000000pt" height="108.000000pt" viewBox="0 0 180.000000 108.000000"
 preserveAspectRatio="xMidYMid meet">
<metadata>
Created by potrace 1.10, written by Peter Selinger 2001-2011
</metadata>
<g transform="translate(0.000000,108.000000) scale(0.100000,-0.100000)"
fill="#eeac0d" stroke="none">
<path d="M1097 1018 c-16 -51 -19 -88 -33 -408 -3 -80 -7 -146 -8 -146 0 -1
-26 -4 -58 -7 l-56 -5 -7 81 c-4 44 -9 112 -10 151 -1 39 -6 99 -10 134 -7 58
-9 62 -33 62 l-25 0 6 -92 c4 -51 9 -106 11 -123 3 -16 7 -71 11 -122 l6 -91
-51 -7 c-37 -5 -50 -11 -50 -23 0 -10 -7 -25 -15 -36 -13 -18 -14 -17 -20 5
-22 97 -55 255 -55 270 0 28 -14 31 -82 15 -35 -8 -63 -14 -64 -13 -1 1 -13
28 -27 60 -24 53 -27 94 -6 82 4 -3 1 17 -7 45 -18 60 -14 102 4 57 12 -28 32
-29 32 -1 0 8 5 14 11 14 5 0 8 -4 5 -9 -3 -5 1 -11 9 -15 10 -4 15 1 16 17 0
19 2 18 11 -7 8 -21 13 -25 19 -15 7 11 10 9 15 -9 6 -21 7 -21 20 -5 13 17
13 17 14 0 0 -10 5 -15 11 -11 7 4 9 -8 7 -37 -3 -32 -9 -43 -19 -41 -11 3
-11 1 -2 -9 10 -10 9 -15 -5 -26 -16 -12 -16 -13 1 -7 12 5 17 1 17 -14 0 -12
4 -23 9 -26 4 -3 11 34 14 82 6 83 5 88 -19 113 -45 47 -158 64 -230 34 -34
-14 -35 -14 -46 10 -6 14 -17 25 -24 25 -28 0 -124 -42 -124 -55 0 -7 15 -46
34 -86 18 -41 41 -92 50 -114 23 -55 53 -88 71 -81 17 6 19 15 5 36 -8 12 -12
12 -18 2 -6 -9 -15 3 -30 39 -25 59 -27 73 -9 63 6 -4 2 4 -10 18 -13 13 -23
31 -23 39 0 8 -6 21 -12 28 -11 11 -10 13 2 7 12 -6 12 -5 -1 6 -8 7 -18 23
-21 35 -5 18 0 24 25 32 64 23 86 7 111 -85 10 -33 20 -66 23 -74 3 -8 5 -22
4 -30 -1 -9 5 -35 14 -59 8 -24 13 -47 10 -51 -3 -5 -23 -11 -45 -15 -44 -7
-47 -12 -25 -41 20 -27 19 -30 -19 -48 -47 -22 -49 -21 -73 26 -17 37 -18 48
-8 77 l11 35 29 -38 c37 -48 46 -38 11 14 -37 56 -60 53 -74 -11 -12 -49 -11
-54 13 -96 14 -24 23 -48 20 -53 -8 -13 84 -180 100 -180 11 0 11 6 -1 30 -9
17 -20 30 -25 30 -6 0 -7 5 -4 10 3 6 2 10 -3 10 -6 0 -9 8 -8 18 0 10 -5 16
-13 14 -8 -2 -11 3 -8 11 3 8 -3 24 -13 35 -19 21 -17 26 18 46 11 7 11 4 2
-11 -10 -15 -8 -25 9 -53 11 -19 21 -30 21 -25 0 6 -7 21 -16 33 -9 13 -14 26
-11 29 9 8 55 -91 49 -106 -3 -8 0 -11 7 -7 6 4 9 2 6 -6 -3 -8 2 -22 10 -33
15 -19 16 -19 5 5 -10 23 -10 24 4 7 8 -11 12 -26 9 -35 -4 -9 -2 -13 4 -9 6
4 10 -1 9 -11 -1 -12 6 -17 21 -16 28 1 29 -2 2 -16 -17 -9 -23 -8 -35 7 -14
17 -14 16 -4 -4 6 -13 7 -23 2 -23 -5 0 -15 13 -21 28 -12 27 -45 40 -56 21
-4 -5 -14 -9 -23 -9 -9 0 -44 -14 -76 -30 -32 -17 -70 -30 -83 -30 -14 0 -22
-4 -18 -11 4 -5 -7 -15 -24 -22 -34 -13 -34 -6 1 -120 12 -37 26 -67 31 -67
10 0 7 59 -4 75 -4 6 -6 28 -5 51 1 36 -1 40 -19 37 -37 -8 6 16 50 28 22 6
48 18 58 27 11 9 26 17 35 17 10 0 16 6 14 14 -2 9 3 11 13 7 11 -4 14 -2 9 6
-5 7 -2 9 8 5 9 -3 21 0 27 6 18 18 42 -19 34 -51 -4 -18 -2 -23 8 -20 8 3 13
13 11 22 -3 14 1 16 16 12 12 -4 39 3 66 16 47 22 59 37 30 34 -10 0 -27 20
-46 54 -16 30 -33 54 -38 53 -4 -1 -7 5 -6 15 0 9 -4 16 -11 15 -7 -2 -10 4
-7 12 4 8 1 15 -5 15 -6 0 -11 7 -11 16 0 9 -7 22 -17 29 -17 12 -11 35 10 35
7 0 35 -43 62 -96 28 -53 62 -110 77 -127 27 -29 27 -31 10 -50 -9 -11 -12
-17 -5 -14 6 4 13 2 15 -4 2 -5 11 -7 21 -4 9 4 14 12 11 17 -4 6 2 7 16 3 16
-5 20 -4 15 4 -5 8 2 10 22 6 20 -4 23 -3 9 3 -17 7 -12 11 25 20 27 7 45 8
47 2 2 -6 11 -10 20 -10 13 0 14 2 3 9 -18 11 -6 17 54 25 28 4 59 9 70 12 20
5 20 5 1 -10 -19 -15 -18 -16 20 -15 21 1 31 3 22 6 -10 2 -18 9 -18 15 0 8
30 9 95 5 117 -8 225 -26 225 -38 0 -5 11 -9 25 -9 38 0 132 -39 177 -73 42
-33 92 -111 85 -132 -3 -6 -2 -27 3 -46 l8 -34 1 34 c1 28 14 48 78 115 43 44
82 80 88 79 12 -2 98 101 101 122 4 26 -9 17 -70 -46 -32 -33 -60 -58 -63 -55
-8 8 18 39 74 89 53 46 53 46 31 62 -31 21 -35 20 -88 -28 -26 -23 -58 -50
-71 -59 -24 -17 -24 -17 11 -8 45 13 45 13 29 -7 -12 -15 -12 -16 5 -10 16 6
17 5 6 -7 -10 -14 -14 -14 -27 -1 -18 19 -35 10 -91 -48 -44 -44 -44 -45 -27
-71 21 -31 30 -34 14 -4 -10 19 -7 25 27 55 22 19 38 37 37 41 -3 15 45 11 58
-4 12 -14 5 -24 -47 -73 -33 -31 -63 -62 -65 -69 -2 -7 -18 12 -36 42 -17 30
-28 56 -23 58 14 5 124 133 139 162 20 36 8 42 -22 12 -16 -16 -21 -27 -14
-30 8 -3 7 -8 -3 -15 -9 -6 -17 -6 -20 -1 -4 6 -21 -5 -39 -24 -18 -19 -30
-39 -27 -44 3 -6 2 -13 -3 -17 -6 -3 -7 -13 -4 -22 5 -13 3 -13 -20 2 l-27 17
70 78 c84 93 96 104 109 95 7 -3 8 0 5 9 -4 10 14 36 50 73 52 54 56 56 56 32
0 -19 -13 -39 -46 -68 -37 -35 -43 -45 -33 -57 7 -8 7 -14 1 -14 -5 0 -12 -10
-15 -21 -5 -20 -3 -19 23 6 16 15 26 33 24 40 -3 6 2 18 11 25 13 11 14 10 8
-6 -4 -10 8 -2 27 20 19 21 35 44 36 50 2 16 -15 38 -53 64 -37 26 -69 28 -75
5 -9 -33 -12 -38 -35 -56 -13 -10 -23 -26 -23 -35 0 -11 16 0 48 31 64 63 87
60 28 -3 -27 -29 -44 -55 -40 -62 5 -8 -1 -9 -22 -3 -46 12 -56 11 -62 -4 -3
-10 0 -12 13 -7 15 5 16 4 5 -9 -7 -8 -17 -12 -23 -8 -5 3 -8 2 -5 -3 3 -5 -9
-20 -26 -34 l-31 -25 24 40 c32 53 62 86 72 79 5 -3 9 5 9 17 0 21 -1 21 -12
6 -12 -15 -15 -15 -37 2 l-23 18 46 69 c33 49 42 70 33 76 -29 18 -48 5 -101
-72 l-55 -80 27 0 c15 0 38 -7 50 -16 18 -12 20 -18 10 -29 -29 -33 -34 -41
-31 -52 5 -13 -27 -66 -35 -59 -2 3 -17 -10 -33 -30 -30 -39 -31 -39 -74 -24
l-30 11 32 29 c17 16 42 48 54 70 14 25 29 39 39 38 8 -2 23 6 33 18 22 29 22
37 -2 24 -14 -7 -20 -7 -23 1 -2 7 -26 -22 -53 -62 -27 -41 -53 -78 -58 -84
-11 -11 -11 -13 28 170 30 143 30 135 6 135 -21 0 -37 16 -23 22 5 1 18 40 29
85 17 70 18 83 6 87 -22 9 -23 8 -23 -16 0 -47 -34 -168 -48 -168 -9 0 -11 7
-7 21 4 12 15 55 25 96 15 66 16 74 2 71 -20 -4 -33 -51 -26 -92 4 -23 3 -27
-5 -16 -7 11 -10 6 -8 -20 0 -19 -1 -42 -4 -50 -2 -9 4 -16 19 -18 18 -3 21
-8 16 -24 -3 -11 -7 -28 -9 -37 -1 -10 -10 -15 -22 -13 -18 2 -23 -9 -42 -95
-27 -117 -39 -157 -40 -129 -1 19 54 463 64 521 3 16 2 25 -3 20 -5 -6 -23
-126 -41 -269 -18 -142 -35 -264 -37 -271 -3 -7 24 -21 79 -39 83 -27 194 -83
184 -93 -3 -2 -25 6 -49 20 -79 46 -214 82 -348 93 -41 4 -78 12 -82 18 -5 8
-8 7 -8 -2 0 -7 -4 -11 -9 -8 -14 9 -129 -10 -234 -38 -53 -14 -104 -26 -112
-26 -15 0 -69 93 -59 102 2 3 -12 45 -31 94 -20 49 -37 97 -38 107 -1 17 -2
17 -13 2 -8 -11 -14 -13 -19 -5 -8 14 -7 16 22 24 28 9 35 -5 89 -169 23 -71
46 -131 52 -133 12 -4 122 27 122 34 0 3 -5 15 -11 26 -14 27 -60 248 -53 259
2 4 0 10 -6 14 -14 9 -12 37 3 33 6 -3 13 -13 13 -24 1 -10 9 -60 18 -111 14
-78 24 -117 51 -190 8 -23 48 2 60 38 13 38 6 36 232 53 l92 7 -13 -38 c-11
-32 -19 -39 -47 -44 -30 -6 -27 -7 18 -8 28 0 58 -3 65 -6 10 -4 15 5 16 32 2
21 5 45 8 55 3 9 0 19 -6 23 -5 3 -10 12 -10 18 0 7 4 6 10 -3 5 -8 10 -10 10
-5 1 6 13 106 28 222 15 117 24 214 19 216 -4 1 -1 22 8 46 22 65 17 73 -9 15
-17 -37 -29 -99 -45 -230 -35 -292 -28 -261 -69 -267 -21 -2 -37 -4 -38 -3 0
1 24 475 25 489 1 5 7 5 14 2 6 -4 4 0 -6 8 -12 10 -14 17 -8 22 6 3 11 15 11
25 0 10 4 20 9 22 4 2 5 11 2 21 -5 13 -11 4 -24 -35z m-599 -149 c7 -30 9
-57 3 -66 -7 -13 -13 -6 -30 32 -26 58 -27 77 -4 68 11 -4 14 -3 9 5 -4 7 -3
12 2 12 5 0 14 -23 20 -51z m816 -73 c-3 -15 -8 -25 -11 -23 -2 3 -1 17 3 31
3 15 8 25 11 23 2 -3 1 -17 -3 -31z m-828 -32 c-4 -10 6 -36 23 -63 16 -25 39
-70 50 -98 11 -29 25 -60 30 -70 5 -10 17 -47 26 -82 10 -36 20 -72 23 -80 3
-8 1 -12 -5 -8 -6 4 -16 27 -23 53 -7 25 -19 48 -27 51 -7 3 -13 9 -13 15 0 5
5 6 12 2 7 -4 2 6 -10 23 -12 17 -18 33 -12 35 5 1 1 17 -10 33 -35 53 -38 59
-60 116 -18 48 -19 89 -3 89 3 0 2 -7 -1 -16z m411 -36 c-3 -8 -6 -5 -6 6 -1
11 2 17 5 13 3 -3 4 -12 1 -19z m27 -205 c5 -49 4 -73 -3 -73 -6 0 -11 21 -11
48 0 26 -2 79 -5 117 -4 58 -3 62 4 25 5 -25 11 -78 15 -117z m-324 117 c0 -5
5 -10 11 -10 5 0 7 5 4 10 -3 6 -2 10 4 10 14 0 42 -60 34 -73 -4 -7 -12 1
-19 18 -24 55 -14 5 16 -87 17 -50 30 -97 30 -105 0 -8 3 -12 8 -10 4 3 7 -8
8 -24 2 -47 -12 -33 -26 26 -7 31 -17 58 -21 61 -5 3 -2 -17 6 -43 8 -26 15
-57 15 -68 -1 -19 -1 -19 -11 -2 -6 10 -9 21 -6 24 3 2 -1 24 -9 46 -9 23 -18
60 -20 82 -3 22 -14 60 -25 84 -21 48 -24 71 -9 71 6 0 10 -4 10 -10z m934
-32 c-14 -24 -30 -52 -37 -63 -7 -11 -13 -22 -14 -24 -1 -1 -6 0 -12 4 -7 4 0
20 18 43 16 20 32 47 36 60 3 12 12 22 20 22 10 0 7 -12 -11 -42z m-178 8 c-3
-14 -18 -78 -31 -143 -32 -145 -34 -153 -46 -153 -6 0 -8 8 -5 18 8 24 57 263
59 285 1 9 8 17 15 17 10 0 12 -7 8 -24z m314 -39 c0 -2 -10 -12 -21 -23 -22
-19 -22 -19 -8 4 12 19 29 30 29 19z m-390 -129 c-14 -98 -18 -108 -37 -101
-16 6 -16 7 20 138 25 94 34 76 17 -37z m-781 23 c22 -43 38 -81 35 -84 -3 -3
-1 -15 6 -26 6 -12 9 -21 6 -21 -6 0 -70 120 -72 134 0 6 -2 17 -2 24 -1 7 -7
10 -14 6 -6 -4 -8 -3 -5 3 4 6 0 14 -9 17 -15 6 -11 26 5 26 5 0 27 -35 50
-79z m1241 4 c-13 -14 -25 -23 -27 -21 -6 6 30 46 41 46 5 0 -1 -11 -14 -25z
m-147 -41 c3 -4 -5 -16 -19 -26 -31 -25 -44 -16 -19 12 19 21 28 24 38 14z
m-446 -56 c-3 -7 -5 -2 -5 12 0 14 2 19 5 13 2 -7 2 -19 0 -25z m392 -12 c-8
-6 -35 -34 -61 -63 -41 -44 -49 -49 -64 -38 -16 11 -15 14 9 30 15 9 24 22 20
28 -3 5 -2 7 4 4 5 -3 25 9 43 28 20 20 38 31 48 28 12 -5 13 -8 1 -17z m215
16 c3 -5 -15 -28 -39 -51 -28 -27 -45 -37 -45 -28 0 9 -6 17 -12 20 -7 2 1 11
18 20 17 9 36 23 43 31 15 18 27 20 35 8z m-1124 -48 c0 -8 -4 -14 -10 -14 -5
0 -10 9 -10 21 0 11 5 17 10 14 6 -3 10 -13 10 -21z m1160 3 c0 -2 -19 -21
-42 -42 l-43 -40 40 43 c36 39 45 47 45 39z m-90 -90 c0 -8 -7 -14 -15 -14
-11 0 -12 4 -4 14 6 7 13 13 15 13 2 0 4 -6 4 -13z m-1460 -37 c-8 -5 -19 -10
-25 -10 -5 0 -3 5 5 10 8 5 20 10 25 10 6 0 3 -5 -5 -10z m1230 0 c0 -5 -2
-10 -4 -10 -3 0 -8 5 -11 10 -3 6 -1 10 4 10 6 0 11 -4 11 -10z"/>
<path d="M1675 330 c-3 -5 -2 -10 4 -10 5 0 13 5 16 10 3 6 2 10 -4 10 -5 0
-13 -4 -16 -10z"/>
<path d="M1126 758 c-4 -116 -10 -226 -12 -242 -4 -22 -3 -27 4 -17 5 7 13
104 16 215 4 110 9 213 12 229 3 15 1 27 -4 27 -5 0 -12 -93 -16 -212z"/>
<path d="M1250 938 c0 -16 5 -28 10 -28 13 0 13 20 0 40 -8 12 -10 9 -10 -12z"/>
<path d="M1405 795 c-4 -24 -4 -48 0 -54 3 -6 2 -11 -4 -11 -15 0 -26 -69 -12
-83 6 -6 11 -8 11 -5 0 9 30 150 36 169 2 9 -2 19 -10 22 -11 5 -17 -5 -21
-38z"/>
<path d="M580 800 c0 -11 4 -20 9 -20 5 0 7 9 4 20 -3 11 -7 20 -9 20 -2 0 -4
-9 -4 -20z"/>
<path d="M386 727 c3 -10 9 -15 12 -12 3 3 0 11 -7 18 -10 9 -11 8 -5 -6z"/>
<path d="M85 619 c-38 -16 -71 -32 -74 -34 -4 -5 86 -213 102 -232 6 -9 6 -13
-2 -13 -6 0 1 -25 16 -57 15 -32 28 -59 29 -60 2 -7 124 40 124 48 0 5 -38 85
-85 179 -49 98 -80 172 -75 175 6 4 35 -46 66 -112 31 -65 59 -120 63 -123 3
-3 17 -29 30 -57 25 -55 35 -61 63 -39 18 13 15 22 -39 125 -1 1 -6 0 -12 -4
-8 -4 -6 -16 4 -35 21 -40 36 -80 30 -80 -3 0 -17 24 -31 53 -15 28 -29 54
-33 57 -12 10 -32 52 -27 57 2 3 12 -10 22 -29 9 -18 19 -27 21 -21 5 14 -100
226 -113 230 -5 1 -40 -11 -79 -28z m24 -74 c9 -16 25 -42 35 -57 10 -15 15
-32 11 -38 -3 -5 -3 -10 2 -10 4 0 16 -14 25 -30 11 -19 13 -30 6 -30 -7 0 4
-14 23 -31 19 -18 28 -29 22 -25 -15 8 -16 5 -7 -18 3 -9 10 -13 15 -10 15 9
5 -20 -11 -33 -10 -8 -19 -8 -27 -1 -9 7 -13 7 -13 -1 0 -24 -16 -9 -36 34
-14 28 -18 47 -12 51 6 4 7 9 1 13 -10 6 -103 192 -103 206 0 4 7 2 15 -5 13
-11 14 -10 9 5 -12 30 27 13 45 -20z"/>
<path d="M72 520 c7 -10 14 -18 15 -16 6 6 -9 36 -18 36 -5 0 -4 -9 3 -20z"/>
<path d="M106 457 c3 -10 9 -15 12 -12 3 3 0 11 -7 18 -10 9 -11 8 -5 -6z"/>
<path d="M120 423 c0 -6 9 -21 21 -34 l20 -24 -17 30 c-24 39 -24 40 -24 28z"/>
<path d="M175 320 c-3 -5 -2 -18 4 -27 7 -14 9 -12 8 10 -2 30 -3 31 -12 17z"/>
<path d="M1590 625 c-5 -14 -22 -42 -36 -61 -25 -32 -27 -73 -3 -59 6 4 8 14
4 23 -3 9 -3 13 1 9 4 -4 14 -1 23 6 14 11 14 10 2 -6 -8 -9 -12 -20 -9 -23 7
-7 58 80 58 99 0 8 -7 20 -15 27 -12 10 -16 8 -25 -15z m18 -30 c-6 -14 -13
-23 -15 -21 -5 5 15 46 22 46 3 0 -1 -11 -7 -25z"/>
<path d="M1276 622 c-4 -13 -5 -26 -2 -29 10 -11 18 4 14 29 l-4 23 -8 -23z"/>
<path d="M328 614 c-3 -3 1 -19 10 -37 9 -17 17 -26 20 -19 2 7 -3 21 -12 31
-9 10 -13 21 -9 24 3 4 4 7 1 7 -2 0 -7 -3 -10 -6z"/>
<path d="M400 411 c0 -6 4 -13 10 -16 6 -3 7 1 4 9 -7 18 -14 21 -14 7z"/>
<path d="M1406 385 c-41 -64 -50 -80 -34 -65 17 17 62 90 55 90 -3 0 -12 -11
-21 -25z"/>
<path d="M798 293 c6 -2 18 -2 25 0 6 3 1 5 -13 5 -14 0 -19 -2 -12 -5z"/>
<path d="M900 279 c0 -5 5 -7 10 -4 6 3 10 8 10 11 0 2 -4 4 -10 4 -5 0 -10
-5 -10 -11z"/>
<path d="M930 279 c0 -5 5 -7 10 -4 6 3 10 8 10 11 0 2 -4 4 -10 4 -5 0 -10
-5 -10 -11z"/>
<path d="M1055 238 c14 -29 25 -63 25 -75 0 -12 4 -24 9 -27 5 -3 12 -21 15
-41 4 -19 11 -37 16 -40 5 -3 2 16 -6 42 -9 26 -19 67 -23 90 -4 24 -15 51
-24 61 -10 10 -17 24 -17 30 0 7 -4 12 -10 12 -5 0 2 -24 15 -52z"/>
<path d="M1095 280 c-3 -5 -1 -10 4 -10 6 0 11 5 11 10 0 6 -2 10 -4 10 -3 0
-8 -4 -11 -10z"/>
<path d="M1125 280 c-3 -4 6 -10 20 -12 14 -3 25 -2 25 2 0 11 -39 20 -45 10z"/>
<path d="M698 273 c7 -3 16 -2 19 1 4 3 -2 6 -13 5 -11 0 -14 -3 -6 -6z"/>
<path d="M825 270 c3 -5 8 -10 11 -10 2 0 4 5 4 10 0 6 -5 10 -11 10 -5 0 -7
-4 -4 -10z"/>
<path d="M750 260 c0 -5 5 -10 10 -10 6 0 10 5 10 10 0 6 -4 10 -10 10 -5 0
-10 -4 -10 -10z"/>
<path d="M1195 260 c27 -12 35 -12 35 0 0 6 -12 10 -27 9 -25 0 -26 -1 -8 -9z"/>
<path d="M1246 253 c11 -8 26 -108 27 -180 0 -24 4 -43 10 -43 9 0 4 99 -9
169 -5 23 -2 36 7 42 9 5 10 9 2 9 -6 0 -20 3 -30 6 -11 4 -14 3 -7 -3z"/>
<path d="M1470 249 c0 -5 5 -7 10 -4 6 3 10 8 10 11 0 2 -4 4 -10 4 -5 0 -10
-5 -10 -11z"/>
<path d="M530 232 c0 -15 4 -20 16 -15 9 3 12 9 7 12 -4 3 -11 10 -15 15 -5 5
-8 0 -8 -12z"/>
<path d="M485 220 c-4 -6 -10 -8 -14 -5 -5 2 -16 -4 -26 -15 -10 -11 -21 -17
-26 -14 -16 10 -190 -169 -176 -182 3 -3 38 28 79 69 49 49 94 83 135 103 34
16 62 35 62 42 1 14 -25 16 -34 2z"/>
<path d="M595 220 c-3 -5 -1 -10 4 -10 6 0 11 5 11 10 0 6 -2 10 -4 10 -3 0
-8 -4 -11 -10z"/>
<path d="M299 193 c-6 -16 -8 -38 -6 -51 8 -43 -37 -38 -55 7 -7 18 -12 22
-16 12 -3 -9 9 -27 29 -43 33 -28 33 -29 11 -34 -14 -4 -22 -14 -22 -28 0 -17
8 -12 45 29 45 51 53 65 35 65 -5 0 -10 -5 -10 -12 0 -6 -3 -9 -6 -5 -3 3 -2
11 2 18 9 15 16 69 9 69 -3 0 -10 -12 -16 -27z"/>
<path d="M530 189 c0 -5 5 -7 10 -4 6 3 10 8 10 11 0 2 -4 4 -10 4 -5 0 -10
-5 -10 -11z"/>
<path d="M258 165 c2 -14 6 -25 8 -25 2 0 4 11 4 25 0 14 -4 25 -9 25 -4 0 -6
-11 -3 -25z"/>
<path d="M505 180 c-3 -5 -1 -10 4 -10 6 0 11 5 11 10 0 6 -2 10 -4 10 -3 0
-8 -4 -11 -10z"/>
<path d="M1420 181 c0 -6 4 -13 10 -16 6 -3 7 1 4 9 -7 18 -14 21 -14 7z"/>
<path d="M1466 128 c10 -14 21 -24 23 -22 3 3 -6 15 -18 27 l-24 22 19 -27z"/>
<path d="M395 110 c3 -5 11 -10 16 -10 6 0 7 5 4 10 -3 6 -11 10 -16 10 -6 0
-7 -4 -4 -10z"/>
<path d="M631 94 c0 -11 3 -14 6 -6 3 7 2 16 -1 19 -3 4 -6 -2 -5 -13z"/>
<path d="M351 74 c0 -11 3 -14 6 -6 3 7 2 16 -1 19 -3 4 -6 -2 -5 -13z"/>
<path d="M1130 25 c0 -8 4 -15 10 -15 5 0 7 7 4 15 -4 8 -8 15 -10 15 -2 0 -4
-7 -4 -15z"/>
</g>
</svg>
